<svg xmlns="http://www.w3.org/2000/svg" xmlns:xlink="http://www.w3.org/1999/xlink" width="500" zoomAndPan="magnify" viewBox="0 0 375 374.999991" height="500" preserveAspectRatio="xMidYMid meet" version="1.0"><defs><clipPath id="54ef6a6243"><path d="M 11.054688 11.054688 L 364.304688 11.054688 L 364.304688 364.304688 L 11.054688 364.304688 Z M 11.054688 11.054688 " clip-rule="nonzero"/></clipPath></defs><g clip-path="url(#54ef6a6243)"><path fill="#000000" d="M 114.484375 12.269531 C 95.699219 13.152344 82.871094 16.164062 71.65625 20.558594 C 60.042969 25.082031 50.207031 31.140625 40.425781 40.972656 C 30.625 50.808594 24.601562 60.65625 20.125 72.289062 C 15.78125 83.535156 12.835938 96.367188 12.003906 115.167969 C 11.171875 133.988281 10.988281 139.992188 11.074219 187.949219 C 11.15625 235.886719 11.371094 241.910156 12.269531 260.742188 C 13.167969 279.53125 16.164062 292.339844 20.558594 303.574219 C 25.082031 315.1875 31.140625 325.003906 40.972656 334.804688 C 50.808594 344.605469 60.65625 350.613281 72.289062 355.105469 C 83.519531 359.449219 96.367188 362.410156 115.152344 363.226562 C 133.988281 364.054688 139.992188 364.238281 187.929688 364.140625 C 235.886719 364.054688 241.890625 363.839844 260.726562 362.941406 C 279.511719 362.042969 292.324219 359.03125 303.554688 354.65625 C 315.171875 350.113281 325.003906 344.074219 334.789062 334.238281 C 344.570312 324.40625 350.59375 314.554688 355.089844 302.925781 C 359.429688 291.691406 362.394531 278.847656 363.207031 260.078125 C 364.023438 241.242188 364.222656 235.21875 364.140625 187.28125 C 364.058594 139.34375 363.824219 133.335938 362.941406 114.503906 C 362.042969 95.699219 359.046875 82.886719 354.65625 71.65625 C 350.113281 60.042969 344.074219 50.226562 334.238281 40.425781 C 324.40625 30.640625 314.554688 24.601562 302.925781 20.125 C 291.691406 15.78125 278.847656 12.820312 260.0625 12.003906 C 241.226562 11.171875 235.203125 10.988281 187.265625 11.074219 C 139.328125 11.15625 133.320312 11.371094 114.484375 12.269531 M 116.546875 331.425781 C 99.34375 330.679688 89.992188 327.816406 83.753906 325.421875 C 75.5 322.226562 69.625 318.398438 63.417969 312.257812 C 57.230469 306.085938 53.402344 300.210938 50.175781 291.992188 C 47.761719 285.769531 44.851562 276.433594 44.035156 259.214844 C 43.152344 240.609375 42.953125 235.019531 42.871094 187.882812 C 42.789062 140.757812 42.953125 135.167969 43.769531 116.546875 C 44.5 99.34375 47.378906 89.992188 49.777344 83.769531 C 52.96875 75.515625 56.78125 69.644531 62.9375 63.4375 C 69.109375 57.246094 74.984375 53.417969 83.21875 50.191406 C 89.445312 47.761719 98.777344 44.867188 115.984375 44.050781 C 134.601562 43.167969 140.175781 42.988281 187.316406 42.886719 C 234.453125 42.789062 240.042969 42.953125 258.664062 43.785156 C 275.867188 44.535156 285.21875 47.378906 291.441406 49.792969 C 299.695312 52.988281 305.585938 56.78125 311.777344 62.953125 C 317.964844 69.128906 321.808594 74.984375 325.019531 83.238281 C 327.449219 89.445312 330.34375 98.792969 331.160156 115.984375 C 332.042969 134.601562 332.242188 140.191406 332.324219 187.316406 C 332.410156 234.453125 332.242188 240.042969 331.425781 258.648438 C 330.679688 275.851562 327.816406 285.21875 325.421875 291.441406 C 322.226562 299.679688 318.414062 305.570312 312.242188 311.757812 C 306.070312 317.933594 300.210938 321.777344 291.960938 325.003906 C 285.753906 327.433594 276.402344 330.328125 259.214844 331.144531 C 240.59375 332.027344 235.019531 332.226562 187.863281 332.308594 C 140.742188 332.390625 135.152344 332.226562 116.53125 331.410156 M 260.476562 93.238281 C 260.496094 104.933594 270.011719 114.402344 281.691406 114.367188 C 293.390625 114.351562 302.859375 104.851562 302.839844 93.152344 C 302.824219 81.457031 293.308594 71.988281 281.609375 72.003906 C 269.910156 72.023438 260.445312 81.539062 260.460938 93.21875 M 96.949219 187.78125 C 97.046875 237.847656 137.714844 278.347656 187.765625 278.25 C 237.832031 278.148438 278.347656 237.5 278.25 187.429688 C 278.148438 137.382812 237.480469 96.863281 187.414062 96.949219 C 137.363281 97.046875 96.847656 137.714844 96.949219 187.78125 M 128.746094 187.714844 C 128.695312 155.21875 154.984375 128.8125 187.480469 128.761719 C 219.976562 128.695312 246.382812 154.984375 246.449219 187.5 C 246.515625 219.996094 220.210938 246.402344 187.714844 246.449219 C 155.21875 246.515625 128.8125 220.210938 128.761719 187.714844 " fill-opacity="1" fill-rule="nonzero"/></g></svg>