<svg xmlns="http://www.w3.org/2000/svg" xmlns:xlink="http://www.w3.org/1999/xlink" width="500" zoomAndPan="magnify" viewBox="0 0 375 374.999991" height="500" preserveAspectRatio="xMidYMid meet" version="1.0"><defs><clipPath id="5ebdcc90fb"><path d="M 6.210938 6.210938 L 368.460938 6.210938 L 368.460938 368.460938 L 6.210938 368.460938 Z M 6.210938 6.210938 " clip-rule="nonzero"/></clipPath></defs><g clip-path="url(#5ebdcc90fb)"><path fill="#000000" d="M 368.410156 187.320312 C 368.410156 199.832031 367.148438 212.039062 364.742188 223.835938 C 363.238281 231.210938 361.273438 238.414062 358.902344 245.429688 C 334.695312 316.957031 267.023438 368.410156 187.304688 368.410156 C 167.160156 368.410156 150.410156 365.457031 133.445312 360.25 C 145.425781 342.597656 152.90625 324.265625 157.890625 304.804688 L 167.160156 267.210938 C 178.476562 281.484375 194.78125 289.40625 213.335938 289.40625 C 260.195312 289.40625 303.660156 243.226562 303.660156 181.652344 C 303.660156 120.078125 259.070312 70.960938 187.984375 70.960938 C 116.902344 70.960938 72.089844 118.949219 72.089844 179.160156 C 72.089844 214.019531 89.296875 239.609375 107.410156 239.609375 C 113.28125 239.609375 117.140625 238.464844 120.757812 232.355469 C 109.664062 220.589844 104.011719 203.382812 104.011719 184.828125 C 104.011719 138.871094 136.15625 105.820312 186.859375 105.820312 C 232.355469 105.820312 263.148438 135.917969 263.148438 183.019531 C 263.148438 225.335938 240.734375 257.941406 209.273438 257.941406 C 191.605469 257.941406 177.8125 247.75 177.8125 229.640625 C 177.8125 225.558594 178.476562 220.8125 180.066406 215.828125 L 187.984375 189.796875 C 190.257812 182.558594 191.382812 176.222656 191.382812 170.554688 C 191.382812 152.683594 181.652344 143.394531 168.300781 143.394531 C 149.0625 143.394531 136.824219 161.507812 136.824219 186.859375 C 136.824219 197.714844 139.09375 208.589844 142.03125 218.097656 L 123.933594 296.199219 C 119.394531 315.21875 117.824219 334.898438 120.078125 355.503906 C 81.207031 339.9375 49.230469 311.496094 29.15625 275.628906 C 28.609375 274.65625 28.082031 273.683594 27.550781 272.691406 C 25.433594 268.785156 23.472656 264.773438 21.679688 260.691406 C 21.234375 259.667969 20.789062 258.644531 20.347656 257.601562 C 19.460938 255.554688 18.640625 253.488281 17.855469 251.386719 C 17.871094 251.371094 17.855469 251.371094 17.855469 251.355469 C 17.460938 250.296875 17.070312 249.253906 16.695312 248.195312 C 16.316406 247.136719 15.960938 246.078125 15.601562 245.019531 C 15.242188 243.945312 14.882812 242.871094 14.542969 241.792969 C 14.21875 240.71875 13.878906 239.644531 13.570312 238.550781 C 13.28125 237.578125 12.988281 236.585938 12.714844 235.597656 C 12.648438 235.324219 12.5625 235.035156 12.496094 234.742188 C 12.238281 233.839844 12 232.917969 11.761719 231.996094 C 11.488281 230.902344 11.214844 229.792969 10.957031 228.683594 C 10.804688 228.015625 10.652344 227.351562 10.515625 226.6875 C 10.328125 225.96875 10.171875 225.253906 10.035156 224.535156 C 9.933594 224.039062 9.832031 223.542969 9.730469 223.03125 C 9.574219 222.332031 9.4375 221.632812 9.335938 220.933594 C 9.183594 220.164062 9.046875 219.398438 8.910156 218.613281 C 8.703125 217.484375 8.515625 216.339844 8.347656 215.214844 C 8.175781 214.070312 8.003906 212.925781 7.851562 211.78125 C 7.695312 210.707031 7.5625 209.632812 7.441406 208.539062 C 7.320312 207.515625 7.21875 206.492188 7.117188 205.464844 C 7.015625 204.648438 6.945312 203.828125 6.894531 203.007812 C 6.777344 201.746094 6.671875 200.480469 6.605469 199.203125 C 6.554688 198.605469 6.519531 198.007812 6.503906 197.410156 C 6.449219 196.777344 6.417969 196.144531 6.398438 195.515625 C 6.367188 194.882812 6.332031 194.234375 6.332031 193.601562 C 6.296875 192.765625 6.261719 191.929688 6.246094 191.09375 C 6.230469 189.828125 6.210938 188.582031 6.210938 187.320312 C 6.210938 181.070312 6.535156 174.890625 7.152344 168.796875 C 16.453125 77.535156 93.582031 6.296875 187.304688 6.296875 C 281.023438 6.296875 358.167969 77.535156 367.472656 168.796875 C 368.085938 174.890625 368.410156 181.070312 368.410156 187.320312 Z M 368.410156 187.320312 " fill-opacity="1" fill-rule="nonzero"/><path fill="#000000" d="M 368.410156 187.320312 C 368.410156 199.832031 367.148438 212.039062 364.742188 223.835938 C 363.222656 231.210938 361.273438 238.414062 358.902344 245.429688 C 334.695312 316.957031 267.023438 368.410156 187.304688 368.410156 C 167.160156 368.410156 150.410156 365.457031 133.445312 360.25 C 145.425781 342.597656 152.90625 324.265625 157.890625 304.804688 L 167.160156 267.210938 C 178.476562 281.484375 194.78125 289.40625 213.335938 289.40625 C 260.195312 289.40625 303.660156 243.226562 303.660156 181.652344 C 303.660156 120.078125 259.070312 70.960938 187.984375 70.960938 C 116.902344 70.960938 72.089844 118.949219 72.089844 179.160156 C 72.089844 214.019531 89.296875 239.609375 107.410156 239.609375 C 113.28125 239.609375 117.140625 238.464844 120.757812 232.355469 C 109.664062 220.589844 104.011719 203.382812 104.011719 184.828125 C 104.011719 138.871094 136.15625 105.820312 186.859375 105.820312 C 232.355469 105.820312 263.148438 135.917969 263.148438 183.019531 C 263.148438 225.335938 240.734375 257.941406 209.273438 257.941406 C 191.605469 257.941406 177.8125 247.75 177.8125 229.640625 C 177.8125 225.558594 178.476562 220.8125 180.066406 215.828125 L 187.984375 189.796875 C 190.257812 182.558594 191.382812 176.222656 191.382812 170.554688 C 191.382812 152.683594 181.652344 143.394531 168.300781 143.394531 C 149.0625 143.394531 136.824219 161.507812 136.824219 186.859375 C 136.824219 197.714844 139.09375 208.589844 142.03125 218.097656 L 123.933594 296.199219 C 119.394531 315.21875 117.824219 334.898438 120.078125 355.503906 C 81.207031 339.9375 49.230469 311.496094 29.15625 275.628906 C 28.609375 274.65625 28.082031 273.683594 27.550781 272.691406 C 25.453125 268.785156 23.503906 264.773438 21.679688 260.691406 C 21.234375 259.667969 20.789062 258.644531 20.347656 257.601562 C 19.492188 255.554688 18.65625 253.46875 17.855469 251.386719 C 17.871094 251.371094 17.855469 251.371094 17.855469 251.355469 C 17.460938 250.296875 17.070312 249.253906 16.695312 248.195312 C 16.316406 247.136719 15.960938 246.078125 15.601562 245.019531 C 15.242188 243.945312 14.882812 242.871094 14.542969 241.792969 C 14.21875 240.71875 13.878906 239.644531 13.570312 238.550781 C 13.28125 237.578125 12.988281 236.585938 12.714844 235.597656 C 12.648438 235.324219 12.5625 235.035156 12.496094 234.742188 C 12.238281 233.839844 12 232.917969 11.761719 231.996094 C 11.488281 230.902344 11.214844 229.792969 10.957031 228.683594 C 10.804688 228.015625 10.652344 227.351562 10.515625 226.6875 C 10.328125 225.96875 10.171875 225.253906 10.035156 224.535156 C 9.933594 224.039062 9.832031 223.542969 9.730469 223.03125 C 9.574219 222.332031 9.4375 221.632812 9.335938 220.933594 C 9.183594 220.164062 9.046875 219.398438 8.910156 218.613281 C 8.703125 217.484375 8.515625 216.339844 8.347656 215.214844 C 8.175781 214.070312 8.003906 212.925781 7.851562 211.78125 C 7.695312 210.707031 7.5625 209.632812 7.441406 208.539062 C 7.320312 207.515625 7.21875 206.492188 7.117188 205.464844 C 7.015625 204.648438 6.945312 203.828125 6.894531 203.007812 C 6.777344 201.746094 6.671875 200.480469 6.605469 199.203125 C 6.554688 198.605469 6.519531 198.007812 6.503906 197.410156 C 6.449219 196.777344 6.417969 196.144531 6.398438 195.515625 C 6.367188 194.882812 6.332031 194.234375 6.332031 193.601562 C 6.296875 192.765625 6.261719 191.929688 6.246094 191.09375 C 6.230469 189.828125 6.210938 188.582031 6.210938 187.320312 C 6.210938 181.070312 6.535156 174.890625 7.152344 168.796875 C 16.421875 77.449219 93.496094 6.210938 187.304688 6.210938 C 281.109375 6.210938 358.203125 77.449219 367.472656 168.796875 C 368.085938 174.890625 368.410156 181.070312 368.410156 187.320312 Z M 368.410156 187.320312 " fill-opacity="1" fill-rule="nonzero"/></g></svg>